Coordinates
version=1
nRows=26
nColumns=24
inDegrees=yes

Units are S.I. units (second, meters, Newtons, ...)
If the header above contains a line with 'inDegrees', this indicates whether rotational values are in degrees (yes) or radians (no).

endheader
time	pelvis_tilt	pelvis_list	pelvis_rotation	pelvis_tx	pelvis_ty	pelvis_tz	hip_flexion_r	hip_adduction_r	hip_rotation_r	knee_angle_r	ankle_angle_r	subtalar_angle_r	mtp_angle_r	hip_flexion_l	hip_adduction_l	hip_rotation_l	knee_angle_l	ankle_angle_l	subtalar_angle_l	mtp_angle_l	lumbar_extension	lumbar_bending	lumbar_rotation
      1.56666667	      5.63609439	     -1.62765006	     -6.65549508	      0.47969785	      0.72680605	      0.30297940	    -12.19568015	      3.96607428	     -7.17754856	    -18.08501097	     27.71645611	      6.08782556	      0.00000000	     21.67572895	     -6.52319572	    -19.23757555	    -14.75695086	      3.05979521	     -9.76686188	      0.00000000	    -13.43066186	     -0.47133382	      8.08760937
      1.57333333	      5.56789598	     -1.65766364	     -6.64716172	      0.48760924	      0.72551658	      0.30233365	    -12.47797764	      3.82721110	     -7.21451690	    -18.69675252	     27.76124787	      5.99397302	      0.00000000	     21.34851321	     -6.09467968	    -19.58701253	    -12.47113920	      3.17494883	     -8.90622085	      0.00000000	    -13.35284468	     -0.44355238	      7.98998029
      1.58000000	      5.43747723	     -1.84057130	     -6.57694353	      0.49559823	      0.72413770	      0.30166409	    -12.71325097	      3.88003326	     -7.22566089	    -19.32374632	     27.76727449	      5.95612500	      0.00000000	     21.24718505	     -5.84427857	    -19.79149387	    -10.73944903	      3.32642690	     -8.36241389	      0.00000000	    -13.20041267	     -0.19402303	      7.93307402
      1.58666667	      5.38600999	     -1.87713767	     -6.59643696	      0.50371921	      0.72293024	      0.30092728	    -12.91270290	      3.69982412	     -7.19326768	    -20.15858090	     27.67098163	      5.91850740	      0.00000000	     20.93675744	     -5.40440067	    -19.88836778	     -9.06426224	      3.49498879	     -7.62152817	      0.00000000	    -13.10612073	     -0.13870464	      7.88861967
      1.59333333	      5.70073594	     -1.52957038	     -6.97785077	      0.51231918	      0.72228728	      0.30043887	    -13.42921849	      2.88657716	     -7.06584966	    -21.10521135	     27.72835889	      6.51555306	      0.00000000	     20.19673640	     -4.72003448	    -21.03256352	     -7.78063057	      3.94908908	     -5.76556740	      0.00000000	    -13.32972757	     -0.67015010	      8.25884352
      1.60000000	      5.63552772	     -1.54084875	     -6.95288918	      0.52055570	      0.72116522	      0.29975682	    -13.51309165	      2.67671589	     -7.01939532	    -22.11390963	     27.42828056	      6.55751801	      0.00000000	     20.10613288	     -4.33321650	    -20.90394340	     -7.04663050	      4.19646391	     -5.19930239	      0.00000000	    -13.20572103	     -0.67179674	      8.28709196
      1.60666667	      5.67624675	     -1.38406880	     -7.14326169	      0.52894874	      0.72027684	      0.29917408	    -13.56923506	      2.15334669	     -6.93308307	    -23.34731881	     27.15782850	      6.89286931	      0.00000000	     19.91883292	     -3.87516733	    -21.24700190	     -6.67897358	      4.43405201	     -4.29299497	      0.00000000	    -13.16091193	     -0.90674960	      8.50391143
      1.61333333	      5.70285157	     -1.33655891	     -7.17071602	      0.53738713	      0.71947760	      0.29865751	    -13.64700204	      1.84239906	     -6.83692877	    -24.51008368	     26.57082669	      6.97648014	      0.00000000	     19.79328022	     -3.50925966	    -20.98482613	     -6.62295652	      4.56108453	     -4.00079312	      0.00000000	    -13.10730464	     -1.04080722	      8.57283691
      1.62000000	      5.81261618	     -1.28031067	     -7.12590162	      0.54595347	      0.71884944	      0.29814811	    -13.87142726	      1.58145168	     -6.55543356	    -25.59515682	     26.05528813	      7.05647214	      0.00000000	     19.67521337	     -3.16618691	    -20.60371987	     -6.98029210	      4.53521341	     -3.84645467	      0.00000000	    -13.13962046	     -1.20635225	      8.62213920
      1.62666667	      5.93336758	     -1.17912168	     -7.21807468	      0.55448460	      0.71834387	      0.29775004	    -13.83848253	      1.14817733	     -6.49160515	    -27.08201577	     25.05919792	      7.13580426	      0.00000000	     19.50264322	     -2.83062291	    -20.20220735	     -7.46897007	      4.48395636	     -3.72079568	      0.00000000	    -13.17570199	     -1.46860552	      8.71542645
      1.63333333	      5.91896932	     -1.00868932	     -7.33875892	      0.56314963	      0.71781560	      0.29718861	    -13.50174381	      0.56789455	     -6.58079751	    -28.79178245	     23.70451658	      7.24776990	      0.00000000	     19.48804236	     -2.46469784	    -19.93143543	     -8.12050560	      4.28782483	     -3.76483576	      0.00000000	    -13.01407112	     -1.70201142	      8.91374985
      1.64000000	      5.71840082	     -0.81166203	     -7.58739994	      0.57136851	      0.71708869	      0.29690652	    -12.69796318	     -0.00435970	     -6.41436454	    -30.87306718	     22.48370158	      7.44194382	      0.00000000	     19.80854886	     -2.18640306	    -19.38358107	     -9.10764987	      3.67216024	     -4.43593259	      0.00000000	    -12.68973408	     -2.05000272	      9.31956019
      1.64666667	      5.99963323	     -0.68719839	     -7.60691253	      0.58017054	      0.71705961	      0.29668435	    -12.77858759	     -0.38455231	     -6.14169048	    -32.36524050	     21.35677179	      7.58148391	      0.00000000	     19.55500891	     -1.90971528	    -18.66814625	    -10.16902335	      3.42651748	     -4.42951992	      0.00000000	    -12.87574473	     -2.38963042	      9.39330991
      1.65333333	      5.66264471	     -0.51200874	     -7.72553980	      0.58829571	      0.71639779	      0.29615048	    -11.53195171	     -0.97190604	     -6.35513977	    -34.78045404	     18.96712364	      7.37705662	      0.00000000	     20.05333555	     -1.62345292	    -17.67915339	    -11.28844861	      2.34179573	     -6.04562878	      0.00000000	    -12.39451110	     -2.62204578	      9.64145154
      1.66000000	      5.66972247	     -0.33496010	     -7.73820953	      0.59680951	      0.71627299	      0.29567378	    -10.86293463	     -1.49543465	     -6.42172629	    -36.81802696	     16.73138153	      7.22139419	      0.00000000	     20.09044220	     -1.26641293	    -16.52585478	    -12.34112636	      1.39083186	     -7.41751916	      0.00000000	    -12.28459324	     -2.93043126	      9.73403984
      1.66666667	      5.62255947	     -0.15319380	     -7.76596823	      0.60521890	      0.71615681	      0.29516488	     -9.98965836	     -2.02346704	     -6.44884221	    -38.99503180	     14.29367133	      6.92422957	      0.00000000	     20.25502680	     -0.95437996	    -15.44304013	    -13.55143897	      0.58693800	     -8.49835300	      0.00000000	    -12.12336034	     -3.21339948	      9.82048325
      1.67333333	      5.56761985	      0.04420623	     -7.79350982	      0.61357190	      0.71608413	      0.29475915	     -8.97182560	     -2.58244285	     -6.55670660	    -41.28895811	     11.61088057	      6.51328338	      0.00000000	     20.40406714	     -0.65171087	    -14.38810153	    -14.72799978	     -0.13118351	     -9.41074122	      0.00000000	    -11.95152786	     -3.56403831	      9.87541528
      1.68000000	      5.65207293	      0.24909934	     -7.79487080	      0.62210232	      0.71630019	      0.29431511	     -8.08345878	     -3.18763448	     -6.71870699	    -43.52794814	      8.76940623	      6.28734117	      0.00000000	     20.34784568	     -0.33101023	    -13.47195480	    -15.85815671	     -0.53204863	    -10.03852611	      0.00000000	    -11.90929837	     -3.92867742	      9.93009324
      1.68666667	      5.53798677	      0.46608836	     -7.83608184	      0.63034067	      0.71632443	      0.29373136	     -6.78951422	     -3.77489261	     -6.75764886	    -45.89903689	      5.65723968	      5.45588216	      0.00000000	     20.51970760	      0.01020891	    -12.39064225	    -16.98708746	     -1.16437364	    -11.21387782	      0.00000000	    -11.67356364	     -4.21013457	      9.94182607
      1.69333333	      5.51024260	      0.68210440	     -7.82734536	      0.63860080	      0.71654213	      0.29320785	     -5.55785882	     -4.32636645	     -6.77073230	    -48.21852472	      2.57391715	      4.64267218	      0.00000000	     20.53823422	      0.36203347	    -11.40997322	    -18.01942903	     -1.58360407	    -12.27471783	      0.00000000	    -11.54205354	     -4.54279645	      9.92936694
      1.70000000	      5.35375225	      0.80997484	     -7.80950276	      0.64653801	      0.71672160	      0.29274525	     -4.08017245	     -4.62201639	     -6.57294141	    -50.52456081	     -0.78310415	      2.70094116	      0.00000000	     20.63666952	      0.67168905	    -10.14049394	    -18.93240164	     -2.53982128	    -14.49935719	      0.00000000	    -11.32188386	     -4.73056204	      9.90400080
      1.70666667	      5.41908514	      1.08339583	     -7.81636731	      0.65487934	      0.71717396	      0.29211238	     -2.81433020	     -5.31720700	     -6.62995123	    -52.81166899	     -3.57625303	      2.21331923	      0.00000000	     20.41237988	      1.09497881	     -9.53570340	    -19.76493093	     -2.36417569	    -14.98494817	      0.00000000	    -11.26001160	     -5.09869633	      9.77689096
      1.71333333	      5.21701747	      1.18730465	     -7.84681605	      0.66263246	      0.71742474	      0.29186811	     -1.12641348	     -5.47448123	     -6.24452386	    -55.10139463	     -6.75935176	     -0.23231204	      0.00000000	     20.51112769	      1.28408462	     -8.82783870	    -20.62865115	     -2.76527177	    -16.38238240	      0.00000000	    -11.00620785	     -5.27855183	      9.76642039
      1.72000000	      5.27178474	      1.40950728	     -7.82420420	      0.67081843	      0.71800634	      0.29132863	      0.23820335	     -5.99414674	     -6.13963693	    -57.28821858	     -9.13181362	     -1.04624720	      0.00000000	     20.15544694	      1.66566704	     -8.43099449	    -21.23526191	     -2.31949183	    -16.88558699	      0.00000000	    -10.96923381	     -5.58219105	      9.55780766
      1.72666667	      5.19633363	      1.58070844	     -7.85716652	      0.67867785	      0.71851275	      0.29104642	      1.85677830	     -6.26607343	     -5.77365977	    -59.46022699	    -11.49077723	     -2.73801157	      0.00000000	     19.95355845	      1.93962187	     -8.17517462	    -21.84962175	     -1.94371025	    -17.48894754	      0.00000000	    -10.80579054	     -5.84310068	      9.37589059
      1.73333333	      5.10301380	      1.52988018	     -7.81054219	      0.68636562	      0.71921668	      0.29107630	      3.40923362	     -6.04663907	     -5.29683847	    -61.38559499	    -14.00784787	     -5.70619669	      0.00000000	     19.73135913	      1.94459857	     -8.00284822	    -22.45165205	     -1.72402227	    -18.08019743	      0.00000000	    -10.70041467	     -5.86444295	      9.35787050
